@startuml
class ReportGenerator {
  +generate(customers: List<Customer>): String
  #makeTarget(customers: List<Customer>): List<Customer>
  #customersCountReport(count: int): String
  #{abstract}customersInfoReport(customer: Customer): String
  #customersPointSumReport(): String
}

class SimpleReportGenerator {
  #customersInfoReport(name: String, point: int): String
}

class ComplexReportGenerator {
  #makeTarget(customers: List<Customer>): List<Customer>
  #customersCountReport(count: int): String
  #customersInfoReport(customer: Customer): String
  #customersPointSumReport(): String
}

ReportGenerator <|-- SimpleReportGenerator
ReportGenerator <|-- ComplexReportGenerator
@enduml